<?xml version="1.0" encoding="utf-8"?>
<!-- Generator: Adobe Illustrator 19.1.0, SVG Export Plug-In . SVG Version: 6.00 Build 0)  -->
<svg version="1.1" id="Layer_1" xmlns="http://www.w3.org/2000/svg" xmlns:xlink="http://www.w3.org/1999/xlink" x="0px" y="0px"
	 viewBox="0 0 5.7 5.3" style="fill: white;" xml:space="preserve">
<path d="M5.7,2.4c0,0.1-0.1,0.3-0.2,0.4L2.9,5.3L0.2,2.8C0,2.6-0.1,2.3,0.1,2.1c0.2-0.2,0.5-0.2,0.7,0l2,1.9l2-1.9
	c0.2-0.2,0.5-0.2,0.7,0C5.7,2.2,5.7,2.3,5.7,2.4z"/>
<path d="M5.7,0.5c0,0.1-0.1,0.3-0.2,0.4L2.9,3.4L0.2,0.9C0,0.7-0.1,0.4,0.1,0.2c0.2-0.2,0.5-0.2,0.7,0l2,1.9l2-1.9
	c0.2-0.2,0.5-0.2,0.7,0C5.7,0.3,5.7,0.4,5.7,0.5z"/>
</svg>
