<?xml version="1.0" encoding="utf-8"?>
<!-- Generator: Adobe Illustrator 19.1.0, SVG Export Plug-In . SVG Version: 6.00 Build 0)  -->
<svg version="1.1" id="Layer_1" xmlns="http://www.w3.org/2000/svg" xmlns:xlink="http://www.w3.org/1999/xlink" x="0px" y="0px"
	 viewBox="0 0 9.1 4.5" style="fill: #433a38;" xml:space="preserve">
<path d="M8.8,0.5H0.2C0.1,0.5,0,0.4,0,0.3S0.1,0,0.2,0h8.6C9,0,9.1,0.1,9.1,0.3S9,0.5,8.8,0.5z"/>
<path d="M8.8,2.5H0.2C0.1,2.5,0,2.4,0,2.2S0.1,2,0.2,2h8.6C9,2,9.1,2.1,9.1,2.2S9,2.5,8.8,2.5z"/>
<path d="M8.8,4.5H0.2C0.1,4.5,0,4.4,0,4.2S0.1,4,0.2,4h8.6C9,4,9.1,4.1,9.1,4.2S9,4.5,8.8,4.5z"/>
</svg>
