<?xml version="1.0" encoding="utf-8"?>
<!-- Generator: Adobe Illustrator 19.1.0, SVG Export Plug-In . SVG Version: 6.00 Build 0)  -->
<svg version="1.1" id="Layer_1" xmlns="http://www.w3.org/2000/svg" xmlns:xlink="http://www.w3.org/1999/xlink" x="0px" y="0px"
	 viewBox="-267.5 407.2 37 27.3" style="fill: white;" xml:space="preserve">
<path d="M-233.7,434.6h-30.6c-1.8,0-3.2-1.4-3.2-3.2v-17.7c0-1.8,1.4-3.2,3.2-3.2h0.8l0,0c0-0.9,0.7-1.6,1.6-1.6h1.6
	c0.9,0,1.6,0.7,1.6,1.6h1.6c0,0,0.9-0.1,1.6-0.8l1.6-1.6c0,0,0.6-0.8,1.6-0.8h6.4c1.1,0,1.6,0.8,1.6,0.8l1.6,1.6
	c0.7,0.7,1.6,0.8,1.6,0.8h7.2c1.8,0,3.2,1.4,3.2,3.2v17.7C-230.5,433.1-231.9,434.6-233.7,434.6z M-232.1,413.7
	c0-0.9-0.7-1.6-1.6-1.6l-7.4,0c-0.2,0-1.5-0.2-2.6-1.3l-1.7-1.7l-0.1-0.1c0,0-0.1-0.1-0.3-0.1h-6.4c-0.1,0-0.3,0.1-0.3,0.2l-0.1,0.1
	l-1.7,1.7c-1,1-2.3,1.2-2.6,1.3l-3.3,0c0,0,0,0-0.1,0h-1.6c0,0,0,0,0,0l-2.4,0c-0.9,0-1.6,0.7-1.6,1.6v17.7c0,0.9,0.7,1.6,1.6,1.6
	h30.6c0.9,0,1.6-0.7,1.6-1.6V413.7z M-249,431.3c-4.9,0-8.8-4-8.8-8.8s4-8.8,8.8-8.8s8.8,4,8.8,8.8S-244.1,431.3-249,431.3z
	 M-249,415.3c-4,0-7.2,3.2-7.2,7.2s3.2,7.2,7.2,7.2s7.2-3.2,7.2-7.2S-245,415.3-249,415.3z M-249,426.5c-2.2,0-4-1.8-4-4
	c0-2.2,1.8-4,4-4s4,1.8,4,4C-245,424.7-246.8,426.5-249,426.5z M-249,420.1c-1.3,0-2.4,1.1-2.4,2.4c0,1.3,1.1,2.4,2.4,2.4
	c1.3,0,2.4-1.1,2.4-2.4C-246.6,421.2-247.7,420.1-249,420.1z M-260.3,416.9h-3.2c-0.4,0-0.8-0.4-0.8-0.8v-1.6c0-0.4,0.4-0.8,0.8-0.8
	h3.2c0.4,0,0.8,0.4,0.8,0.8v1.6C-259.5,416.5-259.8,416.9-260.3,416.9z"/>
</svg>
