<?xml version="1.0" encoding="utf-8"?>
<!-- Generator: Adobe Illustrator 19.1.0, SVG Export Plug-In . SVG Version: 6.00 Build 0)  -->
<svg version="1.1" id="Layer_1" xmlns="http://www.w3.org/2000/svg" xmlns:xlink="http://www.w3.org/1999/xlink" x="0px" y="0px"
	 viewBox="0 0 255.2 119.1" style="enable-background:new 0 0 255.2 119.1;" xml:space="preserve">
<style type="text/css">
	.st0{fill:#433A38;}
	.st1{fill:#D2DE39;}
</style>
<path class="st0" d="M21,26.3l-3,7.5H17L6.5,7.2C4.7,2.8,2.9,1.2,0,0.8V0.4h16.7v0.4c-2.6,0.2-4,0.9-4,2.9c0,1.1,0.5,2.5,1.3,4.2
	L21,26.3z M36.2,0.4v0.4C34,1.3,32.3,2,30.8,3.6c-1.5,1.5-2.7,3.6-3.9,6.6l-0.4-0.2c0.3-1.1,0.9-4.2,0.9-5.6c0-2.4-1.8-3.3-4.1-3.5
	V0.4H36.2z"/>
<path class="st0" d="M40.1,6.9c0-4.4-1.1-5.7-4.5-6.1V0.4h15.5v0.4c-3.4,0.4-4.5,1.6-4.5,6.1V27c0,4.5,1.2,5.7,4.5,6.1v0.4H35.6
	v-0.4c3.4-0.4,4.5-1.7,4.5-6.1V6.9z"/>
<path class="st0" d="M71.3,34c-10.7-0.4-17.5-8-17.5-17.5c0-10.4,9.6-16,16.9-16.5v0.5c-0.8,0.1-2.4,0.5-3.3,1.1
	c-3.6,2-6.6,6.4-6.6,14.8c0,7.3,2,13.6,6.9,16c1.1,0.6,2.4,1,3.5,1.1V34z M83.7,10.7c-0.8-4.4-3.6-8.1-8-9.6
	c-0.8-0.3-1.7-0.5-2.7-0.6V0c4.6,0.2,8.6,0.8,11.2,1.8l0.1,8.9H83.7z M84.3,22.4l-0.1,9.8c-2.4,0.8-6.8,1.4-10.8,1.7v-0.5
	c0.8-0.1,1.6-0.3,2.4-0.6c4.3-1.6,7.1-5.7,8-10.5H84.3z"/>
<path class="st0" d="M101,0.8c-1.6,0.2-3,0.8-4.7,1.8c-2.4,1.5-4.2,4.4-5.1,8h-0.5l0.5-10.3h9.8V0.8z M109.7,27
	c0,4.4,1.2,5.7,4.5,6.1v0.4H98.8v-0.4c3.3-0.4,4.5-1.6,4.5-6.1V0.4h6.4V27z M112,0.4h9.8l0.5,10.3h-0.5c-0.9-3.6-2.7-6.6-5.1-8
	c-1.6-1-3-1.6-4.7-1.8V0.4z"/>
<path class="st0" d="M143.1,34c-11.7-0.3-17.8-8-17.8-17.2c0-10.3,8.4-16.1,16.1-16.7v0.5c-0.8,0.1-2.3,0.5-3.2,1.1
	c-3.5,2.1-5.9,6.3-5.9,14.6c0,7.7,2.2,14,7.1,16.4c1.1,0.5,2.4,0.8,3.6,0.9V34z M143.6,0c11.6,0.3,17.8,8,17.8,17.2
	c0,10.3-8.4,16.1-16.1,16.7v-0.5c0.8-0.1,2.3-0.5,3.3-1.1c3.5-2,5.8-6.3,5.8-14.6c0-7.7-2.2-14-7.1-16.4c-1.1-0.5-2.4-0.8-3.6-0.9V0
	z"/>
<path class="st0" d="M176.5,27c0,4.5,1.7,5.7,5.5,6.1v0.4h-16.5v-0.4c3.4-0.4,4.5-1.7,4.5-6.1V6.9c0-4.4-1.1-5.7-4.5-6.1V0.4h11V27z
	 M180.6,17.9v-0.2c0.7-0.1,1.2-0.2,1.9-0.4c3.5-1.1,4.2-4.2,4.2-8.1c0-5.3-2.8-7.7-7.4-8.3V0.4c0.9,0,3.7,0.2,4.8,0.4
	c6.2,0.9,9.1,3.9,9.1,8.4c0,4.2-2.7,6.8-6.4,7.9v0.1c2.9,5.2,6.9,9.6,10,12.9c1.5,1.7,4,2.9,5.7,3.2v0.4c-1.4,0.2-4.5,0.2-7.1,0.2
	c-3.9,0-6.3-2.6-8.5-5.6C184.8,25.3,182.6,21.8,180.6,17.9z"/>
<path class="st0" d="M206.8,6.9c0-4.4-1.1-5.7-4.5-6.1V0.4h15.5v0.4c-3.4,0.4-4.5,1.6-4.5,6.1V27c0,4.5,1.2,5.7,4.5,6.1v0.4h-15.5
	v-0.4c3.4-0.4,4.5-1.7,4.5-6.1V6.9z"/>
<path class="st0" d="M220,33.5v-0.4c1.9-0.3,3.2-0.9,4.5-2.3c1.7-1.7,2.6-3.4,3.5-5.6l0.4,0.2c-0.1,0.5-0.5,2.3-0.5,3.7
	c0,2.6,1.8,3.8,4.4,4v0.4H220z M239.6,20.8h-10l0.5-1.4h9l-4.5-12.1l2.8-7.2h1.2L249,26.9c1.7,4.3,3.7,5.8,6.3,6.2v0.4h-16.3v-0.4
	c2.6-0.2,3.8-0.9,3.8-2.9c0-1.1-0.4-2.5-1.1-4.2L239.6,20.8z"/>
<path class="st0" d="M36.8,67.2l-3,7.5h-0.9L22.2,48.1c-1.7-4.4-3.6-6-6.5-6.4v-0.4h16.7v0.4c-2.6,0.2-4,0.9-4,2.9
	c0,1.1,0.5,2.5,1.3,4.2L36.8,67.2z M52,41.3v0.4c-2.2,0.4-3.9,1.2-5.4,2.7c-1.5,1.5-2.7,3.6-3.9,6.6l-0.4-0.2
	c0.3-1.1,0.9-4.2,0.9-5.6c0-2.4-1.8-3.3-4.1-3.5v-0.4H52z"/>
<path class="st0" d="M62.4,74.4h-11V74c3.4-0.4,4.5-1.7,4.5-6.1V47.8c0-4.4-1.1-5.7-4.5-6.1v-0.4h16v0.4c-3.8,0.4-5,1.6-5,6.1V74.4z
	 M79.9,62.4l-1,12H65.3V74c2.8-0.2,5.7-0.9,7.7-2.3c3.2-2.1,5.2-5,6.4-9.4H79.9z"/>
<path class="st0" d="M79.7,74.4V74c1.9-0.3,3.2-0.9,4.5-2.3c1.7-1.7,2.6-3.4,3.5-5.6l0.4,0.2c-0.1,0.5-0.5,2.3-0.5,3.7
	c0,2.6,1.8,3.8,4.4,4v0.4H79.7z M99.3,61.6h-10l0.5-1.4h9l-4.5-12.1l2.8-7.2h1.2l10.4,26.9c1.7,4.3,3.7,5.8,6.3,6.2v0.4H98.6V74
	c2.6-0.2,3.8-0.9,3.8-2.9c0-1.1-0.4-2.5-1.1-4.2L99.3,61.6z"/>
<path class="st0" d="M116.9,73.1l-0.6-10h0.5c1.1,5.3,4.8,10.5,8.3,11.2v0.5C121.7,74.5,118.2,73.8,116.9,73.1z M127.2,74.8v-0.5
	c3.4-0.3,6-2.2,6-6.4c0-3.4-2.7-5.2-7.5-7.7c-4.3-2.3-8.9-5.1-8.9-10.3c0-5.5,4.9-8.6,9.8-9v0.5c-2.9,0.3-4.5,2-4.5,5.2
	c0,3.9,3.2,5.4,7.8,8c4.5,2.5,8.6,4.7,8.6,10.5C138.7,72,132.5,74.4,127.2,74.8z M136.5,50.2c-1.2-4.4-3.3-8.1-7.6-8.8v-0.5
	c2,0,5.9,0.7,7.6,1.3l0.4,8H136.5z"/>
<path class="st0" d="M161,74.8c-11.7-0.3-17.8-8-17.8-17.2c0-10.3,8.4-16.1,16.1-16.7v0.5c-0.8,0.1-2.3,0.5-3.2,1.1
	c-3.5,2.1-5.9,6.3-5.9,14.6c0,7.7,2.2,14,7.2,16.4c1.1,0.5,2.4,0.8,3.6,0.9V74.8z M161.5,40.9c11.6,0.3,17.8,8,17.8,17.2
	c0,10.3-8.4,16.1-16.1,16.7v-0.5c0.8-0.1,2.3-0.5,3.3-1.1c3.5-2,5.8-6.3,5.8-14.6c0-7.7-2.2-14-7.1-16.4c-1.1-0.5-2.4-0.8-3.6-0.9
	V40.9z"/>
<path class="st0" d="M199.7,67.2l-3,7.5h-0.9l-10.6-26.7c-1.7-4.4-3.6-6-6.5-6.4v-0.4h16.7v0.4c-2.6,0.2-4,0.9-4,2.9
	c0,1.1,0.5,2.5,1.3,4.2L199.7,67.2z M214.9,41.3v0.4c-2.2,0.4-3.9,1.2-5.4,2.7c-1.5,1.5-2.7,3.6-3.9,6.6l-0.4-0.2
	c0.3-1.1,0.9-4.2,0.9-5.6c0-2.4-1.8-3.3-4.1-3.5v-0.4H214.9z"/>
<path class="st0" d="M204.8,74.4V74c1.9-0.3,3.2-0.9,4.5-2.3c1.7-1.7,2.6-3.4,3.5-5.6l0.4,0.2c-0.1,0.5-0.5,2.3-0.5,3.7
	c0,2.6,1.8,3.8,4.4,4v0.4H204.8z M224.4,61.6h-10l0.5-1.4h9l-4.5-12.1l2.8-7.2h1.2l10.4,26.9c1.7,4.3,3.7,5.8,6.3,6.2v0.4h-16.4V74
	c2.6-0.2,3.8-0.9,3.8-2.9c0-1.1-0.4-2.5-1.1-4.2L224.4,61.6z"/>
<g>
	<path class="st1" d="M20.6,107.4c0,0.4,0,0.8,0,1.2c0,0.5,0,0.9,0,1.4c0,0.5,0,0.9,0,1.3c0,0.4,0,0.8,0,1c0,0.3,0,0.6,0,1.1
		c0,0.5,0,0.9,0,1.4c0,0.5,0,1,0,1.5c0,0.5,0,0.9,0,1.2l1.7,0.1c0,0.2,0,0.3,0,0.5c0,0.2,0,0.4,0,0.6c-0.4,0-0.7,0-1.1,0h-1.6
		c-0.1,0-0.4,0-0.6,0c-0.2,0-0.5,0-0.8,0c-0.3,0-0.5,0-0.7,0c-0.2,0-0.4,0-0.5,0c0-0.2,0-0.4,0-0.6c0-0.2,0-0.4,0-0.5l1.7-0.1
		c0-0.3,0-0.7,0.1-1.2c0-0.5,0-1,0-1.5c0-0.5,0-1,0-1.4c0-0.5,0-0.8,0-1c0-0.2,0-0.6,0-1.1c0-0.5,0-0.9,0-1.4c0-0.5,0-1,0-1.4
		c0-0.5,0-0.8,0-1.1l-1.7-0.1c0-0.1,0-0.3,0-0.5s0-0.4,0-0.6c0.1,0,0.3,0,0.5,0c0.2,0,0.5,0,0.8,0c0.3,0,0.5,0,0.8,0
		c0.2,0,0.5,0,0.6,0c0.2,0,0.4,0,0.7,0c0.3,0,0.6,0,0.9,0h1c0,0.2,0,0.4,0,0.6s0,0.4,0,0.5L20.6,107.4z"/>
	<path class="st1" d="M51.2,112.9c0,1,0,2.1,0,3.1c0,1,0,2.1,0,3.1h-1l-8-9.9c0,0.8,0,1.5,0,2.3c0,0.8,0,1.5,0,2.3v3.9l2.5,0.1
		c0,0.2,0,0.3,0,0.5c0,0.2,0,0.4,0,0.6c-0.4,0-0.9,0-1.3,0h-1.8c-0.2,0-0.3,0-0.5,0c-0.2,0-0.4,0-0.6,0c-0.2,0-0.4,0-0.6,0
		c-0.2,0-0.3,0-0.4,0c0-0.2,0-0.4,0-0.6c0-0.2,0-0.4,0-0.5l1.4-0.1l0.1-10.1l-1.8-0.2v-1.1c0.5,0,1,0,1.5,0c0.5,0,1,0,1.5,0l7.8,9.6
		c-0.1-0.8-0.1-1.6-0.1-2.4c0-0.8,0-1.6,0-2.3c0-0.6,0-1.3,0-1.8c0-0.6,0-1.2,0-1.8l-2.4-0.1c0-0.1,0-0.3,0-0.5s0-0.4,0-0.6h1.3
		c0.3,0,0.7,0,1,0c0.3,0,0.6,0,0.8,0c0.1,0,0.3,0,0.5,0c0.2,0,0.4,0,0.6,0c0.2,0,0.4,0,0.6,0c0.2,0,0.3,0,0.4,0c0,0.2,0,0.4,0,0.6
		s0,0.4,0,0.5l-1.5,0.1V112.9z"/>
	<path class="st1" d="M77.3,118.7c-0.5,0-0.9,0-1.4,0H74c-0.2,0-0.4,0-0.7,0c-0.3,0-0.6,0-0.9,0c-0.3,0-0.6,0-0.9,0
		c-0.3,0-0.5,0-0.6,0c0-0.2,0-0.4,0-0.6c0-0.2,0-0.4,0-0.5l2.1-0.1c0-0.3,0-0.7,0.1-1.2c0-0.5,0-1,0-1.5c0-0.5,0-1,0-1.4
		c0-0.4,0-0.8,0-1c0-0.2,0-0.6,0-1.1c0-0.4,0-0.9,0-1.4c0-0.5,0-0.9,0-1.4c0-0.5,0-0.8,0-1.1l-2.3,0c-0.3,0-0.4,0.2-0.4,0.4
		l-0.1,1.9c-0.1,0-0.2,0-0.3,0c-0.1,0-0.2,0-0.3,0c-0.1,0-0.2,0-0.3,0c-0.1,0-0.2,0-0.3,0c0-0.1,0-0.3,0-0.7c0-0.3,0-0.7,0-1.1
		c0-0.4,0-0.8,0-1.1c0-0.4,0-0.6,0-0.8l1.4,0.1h7.2l1.4-0.1c0,0.2,0,0.4,0,0.8c0,0.4,0,0.7,0,1.1c0,0.4,0,0.8,0,1.1
		c0,0.3,0,0.6,0,0.7c-0.1,0-0.2,0-0.3,0c-0.1,0-0.2,0-0.3,0c-0.1,0-0.2,0-0.3,0c-0.1,0-0.2,0-0.3,0l-0.1-1.9c0-0.2-0.1-0.3-0.1-0.3
		c-0.1-0.1-0.2-0.1-0.4-0.1l-2.2,0c0,0.4,0,0.8,0,1.2c0,0.5,0,0.9,0,1.4c0,0.5,0,0.9,0,1.3c0,0.4,0,0.8,0,1c0,0.3,0,0.6,0,1.1
		c0,0.5,0,0.9,0,1.5c0,0.5,0,1,0,1.5c0,0.5,0,0.9,0,1.2l2.3,0.1c0,0.2,0,0.3,0,0.5C77.3,118.4,77.3,118.6,77.3,118.7z"/>
	<path class="st1" d="M104.2,118.7h-3.1c-0.4,0-0.7,0-1.1,0h-1.6c-0.2,0-0.4,0-0.6,0c-0.2,0-0.5,0-0.8,0c-0.3,0-0.5,0-0.7,0
		c-0.2,0-0.4,0-0.5,0c0-0.2,0-0.4,0-0.6c0-0.2,0-0.4,0-0.5l1.7-0.1c0-0.3,0-0.7,0.1-1.2c0-0.5,0-1,0-1.5c0-0.5,0-1,0-1.4
		c0-0.5,0-0.8,0-1c0-0.2,0-0.6,0-1.1c0-0.5,0-0.9,0-1.4c0-0.5,0-1,0-1.4c0-0.5,0-0.8,0-1.1l-1.7-0.1c0-0.1,0-0.3,0-0.5s0-0.4,0-0.6
		c0.1,0,0.3,0,0.5,0c0.2,0,0.5,0,0.8,0c0.3,0,0.5,0,0.8,0c0.2,0,0.5,0,0.6,0h5.3l1.5-0.1c0,0.1,0,0.4,0,0.7c0,0.3,0,0.6,0,0.9
		c0,0.3,0,0.6,0,0.9c0,0.3,0,0.5,0,0.6c-0.1,0-0.2,0-0.3,0c-0.1,0-0.2,0-0.4,0c-0.1,0-0.2,0-0.3,0c-0.1,0-0.2,0-0.3,0l-0.1-1.3
		c0-0.2-0.1-0.3-0.2-0.4c-0.1-0.1-0.2-0.1-0.4-0.1l-3.9,0c0,0.3,0,0.7,0,1c0,0.4,0,0.8,0,1.1c0,0.4,0,0.7,0,1.1c0,0.4,0,0.7,0,1
		c0.2,0,0.5,0,0.7,0c0.2,0,0.5,0,0.7,0c0.2,0,0.4,0,0.7,0c0.2,0,0.5,0,0.7,0l0.2-1.5c0.4,0,0.7,0,1.1,0c0,0.4,0,0.7,0,1.1
		c0,0.4,0,0.8,0,1.2c0,0.4,0,0.8,0,1.2c0,0.4,0,0.8,0,1.1c-0.4,0-0.7,0-1.1,0l-0.2-1.9c-0.2,0-0.5,0-0.7,0c-0.2,0-0.5,0-0.7,0
		c-0.2,0-0.4,0-0.7,0c-0.2,0-0.5,0-0.8,0c0,0.3,0,0.7,0,1.1c0,0.4,0,0.8,0,1.3c0,0.4,0,0.8,0,1.2c0,0.4,0,0.8,0,1.1h4.3
		c0.2,0,0.3,0,0.4-0.1c0.1-0.1,0.1-0.2,0.1-0.3l0.1-1.7c0.1,0,0.2,0,0.3,0c0.1,0,0.2,0,0.3,0c0.1,0,0.2,0,0.4,0c0.1,0,0.2,0,0.3,0
		c0,0.1,0,0.3,0,0.6c0,0.3,0,0.7,0,1c0,0.4,0,0.7,0,1.1c0,0.3,0,0.6,0,0.7L104.2,118.7z"/>
	<path class="st1" d="M128.4,117.6c0,0.2,0,0.3,0,0.5c0,0.2,0,0.4,0,0.6c-0.4,0-0.8,0-1.2,0h-1.7c-0.2,0-0.4,0-0.6,0
		c-0.2,0-0.5,0-0.8,0c-0.3,0-0.5,0-0.7,0c-0.2,0-0.4,0-0.5,0c0-0.2,0-0.4,0-0.6c0-0.2,0-0.4,0-0.5l1.7-0.1c0-0.3,0-0.7,0.1-1.2
		c0-0.5,0-1,0-1.5c0-0.5,0-1,0-1.4c0-0.5,0-0.8,0-1c0-0.2,0-0.6,0-1.1c0-0.5,0-0.9,0-1.4c0-0.5,0-1,0-1.4c0-0.5,0-0.8,0-1.1
		l-1.7-0.1c0-0.1,0-0.3,0-0.5s0-0.4,0-0.6c0.1,0,0.3,0,0.5,0c0.2,0,0.5,0,0.8,0c0.3,0,0.5,0,0.8,0c0.2,0,0.5,0,0.6,0h2.5
		c0.8,0,1.4,0.1,2,0.3c0.5,0.2,1,0.5,1.3,0.8c0.3,0.3,0.6,0.7,0.7,1.1c0.1,0.4,0.2,0.8,0.2,1.2c0,0.7-0.1,1.2-0.4,1.6
		c-0.2,0.4-0.5,0.8-0.8,1c-0.4,0.3-0.8,0.5-1.2,0.6c0.3,0.4,0.5,0.8,0.7,1.1c0.2,0.3,0.4,0.6,0.5,0.8c0.2,0.2,0.3,0.4,0.4,0.6
		c0.1,0.2,0.3,0.4,0.5,0.7c0.4,0.5,0.8,1,1.2,1.3c0.4,0.4,0.9,0.6,1.5,0.6c0,0.1,0,0.2,0,0.3c0,0.1-0.1,0.2-0.1,0.3
		c0,0.1-0.1,0.2-0.1,0.3c0,0.1-0.1,0.1-0.1,0.2c-0.8,0.1-1.4,0-1.9-0.2c-0.5-0.2-0.9-0.5-1.3-0.9c-0.3-0.3-0.5-0.6-0.7-0.9
		c-0.2-0.3-0.5-0.6-0.7-1c-0.2-0.3-0.5-0.7-0.8-1.2c-0.3-0.4-0.6-0.9-1-1.5c-0.3,0-0.5,0-0.8,0c-0.3,0-0.5,0-0.8,0
		c0,0.3,0,0.7,0,1.1c0,0.4,0,0.8,0,1.1c0,0.4,0,0.8,0,1.1c0,0.4,0,0.7,0,0.9L128.4,117.6z M126.5,112.3c0.2,0,0.4,0,0.5,0
		c0.2,0,0.4,0,0.5,0c1,0,1.8-0.2,2.2-0.6c0.4-0.4,0.6-1,0.6-1.9c0-0.8-0.2-1.3-0.6-1.8c-0.4-0.4-1.1-0.6-2-0.6h-1.2V112.3z"/>
	<path class="st1" d="M155,107.4c0,0.4,0,0.8,0,1.2c0,0.5,0,0.9,0,1.4c0,0.5,0,0.9,0,1.3c0,0.4,0,0.8,0,1c0,0.3,0,0.6,0,1.1
		c0,0.5,0,0.9,0,1.4c0,0.5,0,1,0,1.5c0,0.5,0,0.9,0,1.2l1.7,0.1c0,0.2,0,0.3,0,0.5c0,0.2,0,0.4,0,0.6c-0.4,0-0.7,0-1.1,0H154
		c-0.2,0-0.4,0-0.6,0c-0.2,0-0.5,0-0.8,0c-0.3,0-0.5,0-0.7,0c-0.2,0-0.4,0-0.5,0c0-0.2,0-0.4,0-0.6c0-0.2,0-0.4,0-0.5l1.7-0.1
		c0-0.3,0-0.7,0.1-1.2c0-0.5,0-1,0-1.5c0-0.5,0-1,0-1.4c0-0.5,0-0.8,0-1c0-0.2,0-0.6,0-1.1c0-0.5,0-0.9,0-1.4c0-0.5,0-1,0-1.4
		c0-0.5,0-0.8,0-1.1l-1.7-0.1c0-0.1,0-0.3,0-0.5s0-0.4,0-0.6c0.1,0,0.3,0,0.5,0c0.2,0,0.5,0,0.8,0c0.3,0,0.5,0,0.8,0
		c0.2,0,0.5,0,0.6,0c0.2,0,0.4,0,0.7,0c0.3,0,0.6,0,0.9,0h1c0,0.2,0,0.4,0,0.6s0,0.4,0,0.5L155,107.4z"/>
	<path class="st1" d="M180.4,106c0.8,0,1.6,0.1,2.4,0.4c0.8,0.3,1.4,0.7,2,1.2c0.6,0.5,1,1.2,1.4,2c0.3,0.8,0.5,1.7,0.5,2.7
		c0,1-0.2,2-0.5,2.8c-0.3,0.8-0.8,1.5-1.3,2.1c-0.6,0.6-1.2,1-2,1.3c-0.8,0.3-1.6,0.5-2.6,0.5c-0.8,0-1.5-0.1-2.3-0.4
		c-0.8-0.3-1.4-0.7-2-1.2c-0.6-0.5-1.1-1.2-1.4-2c-0.4-0.8-0.5-1.7-0.5-2.8c0-0.9,0.2-1.8,0.5-2.6c0.3-0.8,0.8-1.5,1.4-2.1
		c0.6-0.6,1.2-1.1,2-1.4C178.6,106.2,179.5,106,180.4,106z M180.5,117.7c0.6,0,1.2-0.1,1.7-0.3c0.5-0.2,0.9-0.5,1.3-1
		c0.4-0.4,0.7-1,0.9-1.6c0.2-0.7,0.3-1.4,0.3-2.3c0-0.9-0.1-1.6-0.4-2.3c-0.2-0.7-0.6-1.2-1-1.6c-0.4-0.4-0.9-0.8-1.4-1
		c-0.5-0.2-1.1-0.3-1.7-0.3c-0.5,0-1,0.1-1.5,0.3c-0.5,0.2-1,0.5-1.4,0.9c-0.4,0.4-0.7,0.9-1,1.6c-0.2,0.6-0.4,1.4-0.4,2.3
		c0,0.9,0.1,1.6,0.4,2.3c0.2,0.7,0.6,1.2,1,1.7c0.4,0.5,0.9,0.8,1.4,1.1C179.3,117.6,179.9,117.7,180.5,117.7z"/>
	<path class="st1" d="M209.4,117.6c0,0.2,0,0.3,0,0.5c0,0.2,0,0.4,0,0.6c-0.4,0-0.8,0-1.2,0h-1.7c-0.2,0-0.4,0-0.6,0
		c-0.2,0-0.5,0-0.8,0c-0.3,0-0.5,0-0.7,0c-0.2,0-0.4,0-0.5,0c0-0.2,0-0.4,0-0.6c0-0.2,0-0.4,0-0.5l1.7-0.1c0-0.3,0-0.7,0.1-1.2
		c0-0.5,0-1,0-1.5c0-0.5,0-1,0-1.4c0-0.5,0-0.8,0-1c0-0.2,0-0.6,0-1.1c0-0.5,0-0.9,0-1.4c0-0.5,0-1,0-1.4c0-0.5,0-0.8,0-1.1
		l-1.7-0.1c0-0.1,0-0.3,0-0.5s0-0.4,0-0.6c0.1,0,0.3,0,0.5,0c0.2,0,0.5,0,0.8,0c0.3,0,0.5,0,0.8,0c0.2,0,0.5,0,0.6,0h2.5
		c0.8,0,1.4,0.1,2,0.3c0.5,0.2,1,0.5,1.3,0.8c0.3,0.3,0.6,0.7,0.7,1.1c0.1,0.4,0.2,0.8,0.2,1.2c0,0.7-0.1,1.2-0.4,1.6
		c-0.2,0.4-0.5,0.8-0.9,1c-0.4,0.3-0.8,0.5-1.2,0.6c0.3,0.4,0.5,0.8,0.7,1.1c0.2,0.3,0.4,0.6,0.5,0.8c0.2,0.2,0.3,0.4,0.4,0.6
		c0.1,0.2,0.3,0.4,0.5,0.7c0.4,0.5,0.8,1,1.2,1.3c0.4,0.4,0.9,0.6,1.5,0.6c0,0.1,0,0.2,0,0.3c0,0.1-0.1,0.2-0.1,0.3
		c0,0.1-0.1,0.2-0.1,0.3c0,0.1-0.1,0.1-0.1,0.2c-0.8,0.1-1.5,0-1.9-0.2c-0.5-0.2-0.9-0.5-1.3-0.9c-0.3-0.3-0.5-0.6-0.7-0.9
		c-0.2-0.3-0.5-0.6-0.7-1c-0.2-0.3-0.5-0.7-0.8-1.2c-0.3-0.4-0.6-0.9-1-1.5c-0.3,0-0.5,0-0.8,0c-0.3,0-0.5,0-0.8,0
		c0,0.3,0,0.7,0,1.1c0,0.4,0,0.8,0,1.1c0,0.4,0,0.8,0,1.1c0,0.4,0,0.7,0,0.9L209.4,117.6z M207.5,112.3c0.2,0,0.4,0,0.5,0
		c0.2,0,0.4,0,0.5,0c1,0,1.7-0.2,2.2-0.6c0.4-0.4,0.6-1,0.6-1.9c0-0.8-0.2-1.3-0.6-1.8c-0.4-0.4-1.1-0.6-2-0.6h-1.2V112.3z"/>
	<path class="st1" d="M236.2,117.7c0.3,0,0.6,0,0.9-0.1c0.3-0.1,0.5-0.1,0.8-0.3c0.2-0.1,0.4-0.3,0.5-0.5c0.1-0.2,0.2-0.5,0.2-0.8
		c0-0.3,0-0.6-0.1-0.8c-0.1-0.2-0.2-0.5-0.4-0.7c-0.2-0.2-0.5-0.5-0.8-0.7c-0.3-0.2-0.8-0.5-1.3-0.8c-0.5-0.3-1-0.6-1.4-0.9
		c-0.4-0.3-0.8-0.5-1.1-0.8c-0.3-0.3-0.5-0.6-0.6-0.9c-0.1-0.3-0.2-0.7-0.2-1.2c0-0.5,0.1-0.9,0.3-1.3c0.2-0.4,0.5-0.7,0.9-1
		c0.4-0.3,0.8-0.5,1.3-0.7c0.5-0.2,1-0.2,1.5-0.2c0.3,0,0.6,0,0.9,0c0.2,0,0.5,0.1,0.7,0.1c0.2,0.1,0.4,0.1,0.6,0.1
		c0.2,0.1,0.4,0.1,0.7,0.1l0.5,0c0,0.1,0,0.4,0,0.7c0,0.3,0,0.7,0,1c0,0.4,0,0.7,0,1c0,0.3,0,0.5,0,0.6h-1.3l-0.2-1.5
		c0-0.2-0.1-0.4-0.2-0.5c-0.1-0.1-0.3-0.2-0.5-0.2c-0.2-0.1-0.5-0.1-0.7-0.2c-0.2,0-0.5-0.1-0.7-0.1c-0.3,0-0.5,0-0.8,0.1
		c-0.2,0.1-0.5,0.1-0.7,0.2c-0.2,0.1-0.3,0.3-0.5,0.4c-0.1,0.2-0.2,0.4-0.2,0.6c0,0.2,0,0.5,0.1,0.7c0.1,0.2,0.2,0.4,0.3,0.6
		c0.2,0.2,0.4,0.4,0.8,0.7c0.3,0.2,0.8,0.5,1.3,0.9c0.6,0.4,1.2,0.7,1.6,1c0.4,0.3,0.8,0.6,1.1,0.9c0.3,0.3,0.5,0.6,0.6,0.9
		c0.1,0.3,0.2,0.7,0.2,1.1c0,0.5-0.1,1.1-0.4,1.5c-0.2,0.5-0.6,0.8-1,1.1c-0.4,0.3-0.9,0.5-1.5,0.7c-0.5,0.2-1.1,0.3-1.7,0.3
		c-0.4,0-0.7,0-0.9-0.1c-0.2,0-0.4-0.1-0.6-0.1c-0.2,0-0.4-0.1-0.6-0.1c-0.2,0-0.5-0.1-0.8-0.1l-0.4,0c0-0.1,0-0.4,0-0.7
		c0-0.3,0-0.7,0-1.1c0-0.4,0-0.7,0-1c0-0.3,0-0.5,0-0.6h1.3l0.1,1.5c0,0.3,0.1,0.5,0.2,0.6c0.1,0.1,0.2,0.2,0.4,0.2
		c0.2,0.1,0.5,0.1,0.8,0.1C235.7,117.6,236,117.7,236.2,117.7z"/>
</g>
</svg>
