<?xml version="1.0" encoding="utf-8"?>
<!-- Generator: Adobe Illustrator 19.2.1, SVG Export Plug-In . SVG Version: 6.00 Build 0)  -->
<svg version="1.1" id="Layer_1" xmlns="http://www.w3.org/2000/svg" xmlns:xlink="http://www.w3.org/1999/xlink" x="0px" y="0px"
	 viewBox="0 0 526.3 251" style="enable-background:new 0 0 526.3 251;" xml:space="preserve">
<style type="text/css">
	.st0{fill:#F4F3EB;}
	.st1{fill:#BFD730;}
</style>
<path class="st0" d="M42.3,122.6l-2.9,7.3h-0.9l-10.2-25.7c-1.7-4.3-3.4-5.8-6.2-6.1v-0.4h16.1V98c-2.5,0.2-3.9,0.9-3.9,2.8
	c0,1.1,0.5,2.4,1.2,4.1L42.3,122.6z M57,97.6V98c-2.1,0.4-3.8,1.2-5.2,2.6c-1.5,1.5-2.6,3.5-3.8,6.3l-0.4-0.2c0.3-1,0.9-4.1,0.9-5.4
	c0-2.3-1.8-3.1-4-3.3v-0.4H57z"/>
<path class="st0" d="M60.8,103.9c0-4.3-1.1-5.5-4.4-5.9v-0.4h15V98c-3.2,0.4-4.4,1.6-4.4,5.9v19.4c0,4.3,1.1,5.5,4.4,5.9v0.4h-15
	v-0.4c3.3-0.4,4.4-1.6,4.4-5.9V103.9z"/>
<path class="st0" d="M90.8,129.9c-10.3-0.4-16.9-7.8-16.9-16.8c0-10,9.3-15.4,16.3-15.9v0.5c-0.8,0.1-2.3,0.5-3.2,1
	c-3.4,2-6.3,6.1-6.3,14.3c0,7,2,13.1,6.7,15.4c1.1,0.6,2.3,1,3.4,1.1V129.9z M102.8,107.5c-0.8-4.3-3.4-7.8-7.8-9.3
	c-0.8-0.3-1.7-0.5-2.6-0.6v-0.5c4.5,0.2,8.3,0.8,10.8,1.8l0.1,8.6H102.8z M103.4,118.8l-0.1,9.4c-2.3,0.8-6.5,1.4-10.4,1.7v-0.5
	c0.8-0.1,1.6-0.3,2.3-0.6c4.1-1.5,6.8-5.5,7.7-10.1H103.4z"/>
<path class="st0" d="M119.5,98c-1.6,0.2-2.9,0.8-4.5,1.7c-2.3,1.4-4,4.3-4.9,7.8h-0.5l0.5-9.9h9.4V98z M127.9,123.2
	c0,4.3,1.1,5.5,4.4,5.9v0.4h-14.9v-0.4c3.2-0.4,4.4-1.6,4.4-5.9V97.6h6.2V123.2z M130.1,97.6h9.4l0.5,9.9h-0.5
	c-0.9-3.5-2.6-6.3-4.9-7.8c-1.6-1-2.9-1.5-4.5-1.7V97.6z"/>
<path class="st0" d="M160.1,129.9c-11.3-0.3-17.2-7.7-17.2-16.6c0-9.9,8.1-15.6,15.6-16.1v0.5c-0.8,0.1-2.2,0.5-3.1,1.1
	c-3.4,2-5.7,6.1-5.7,14c0,7.4,2.1,13.5,6.9,15.8c1.1,0.5,2.3,0.8,3.5,0.9V129.9z M160.5,97.2c11.2,0.3,17.1,7.7,17.1,16.6
	c0,9.9-8.1,15.5-15.6,16.1v-0.5c0.8-0.1,2.2-0.5,3.1-1.1c3.3-1.9,5.6-6.1,5.6-14c0-7.4-2.1-13.5-6.9-15.8c-1.1-0.5-2.3-0.8-3.4-0.9
	V97.2z"/>
<path class="st0" d="M192.3,123.2c0,4.3,1.7,5.5,5.3,5.9v0.4h-15.9v-0.4c3.3-0.4,4.4-1.6,4.4-5.9v-19.4c0-4.3-1.1-5.5-4.4-5.9v-0.4
	h10.6V123.2z M196.2,114.4v-0.2c0.7-0.1,1.2-0.2,1.8-0.4c3.4-1.1,4.1-4.1,4.1-7.8c0-5.1-2.7-7.5-7.1-8v-0.4c0.9,0,3.5,0.2,4.7,0.4
	c6,0.9,8.8,3.8,8.8,8.1c0,4.1-2.6,6.5-6.2,7.7v0.1c2.8,5,6.7,9.3,9.7,12.4c1.4,1.6,3.9,2.8,5.5,3v0.4c-1.4,0.2-4.3,0.2-6.8,0.2
	c-3.8,0-6-2.5-8.2-5.4C200.3,121.6,198.2,118.2,196.2,114.4z"/>
<path class="st0" d="M221.5,103.9c0-4.3-1.1-5.5-4.4-5.9v-0.4h15V98c-3.2,0.4-4.4,1.6-4.4,5.9v19.4c0,4.3,1.1,5.5,4.4,5.9v0.4h-15
	v-0.4c3.3-0.4,4.4-1.6,4.4-5.9V103.9z"/>
<path class="st0" d="M234.2,129.5v-0.4c1.8-0.3,3.1-0.9,4.4-2.2c1.6-1.6,2.5-3.3,3.3-5.4l0.4,0.2c-0.1,0.5-0.5,2.2-0.5,3.5
	c0,2.5,1.7,3.7,4.3,3.9v0.4H234.2z M253.2,117.2h-9.7l0.5-1.3h8.7l-4.3-11.7l2.7-6.9h1.1l10,25.9c1.6,4.1,3.5,5.6,6,6v0.4h-15.8
	v-0.4c2.5-0.2,3.7-0.9,3.7-2.8c0-1.1-0.4-2.4-1.1-4.1L253.2,117.2z"/>
<path class="st0" d="M303.6,123l-2.9,7.3h-0.9l-10.2-25.7c-1.7-4.3-3.4-5.8-6.2-6.1V98h16.1v0.4c-2.5,0.2-3.9,0.9-3.9,2.8
	c0,1.1,0.5,2.4,1.2,4.1L303.6,123z M318.3,98v0.4c-2.1,0.4-3.8,1.2-5.2,2.6c-1.5,1.5-2.6,3.5-3.8,6.3l-0.4-0.2
	c0.3-1,0.9-4.1,0.9-5.4c0-2.3-1.8-3.1-4-3.3V98H318.3z"/>
<path class="st0" d="M328.2,129.9h-10.6v-0.4c3.3-0.4,4.4-1.6,4.4-5.9v-19.4c0-4.3-1.1-5.5-4.4-5.9V98h15.5v0.4
	c-3.7,0.4-4.9,1.6-4.9,5.9V129.9z M345.2,118.3l-1,11.6h-13.1v-0.4c2.7-0.2,5.5-0.9,7.5-2.2c3.1-2,5-4.8,6.2-9H345.2z"/>
<path class="st0" d="M344.9,129.9v-0.4c1.8-0.3,3.1-0.9,4.4-2.2c1.6-1.6,2.5-3.3,3.3-5.4l0.4,0.2c-0.1,0.5-0.5,2.2-0.5,3.5
	c0,2.5,1.7,3.7,4.3,3.9v0.4H344.9z M363.9,117.6h-9.7l0.5-1.3h8.7l-4.3-11.7l2.7-6.9h1.1l10,25.9c1.6,4.1,3.5,5.6,6,6v0.4h-15.8
	v-0.4c2.5-0.2,3.7-0.9,3.7-2.8c0-1.1-0.4-2.4-1.1-4.1L363.9,117.6z"/>
<path class="st0" d="M380.8,128.7l-0.6-9.6h0.5c1.1,5.1,4.6,10.1,8,10.8v0.5C385.5,130.1,382.1,129.3,380.8,128.7z M390.8,130.3
	v-0.5c3.2-0.3,5.8-2.1,5.8-6.1c0-3.3-2.6-5-7.2-7.5c-4.2-2.2-8.6-4.9-8.6-9.9c0-5.3,4.8-8.3,9.4-8.7v0.5c-2.8,0.3-4.3,2-4.3,5
	c0,3.8,3.1,5.2,7.6,7.7c4.4,2.4,8.3,4.6,8.3,10.1C401.9,127.6,395.9,130,390.8,130.3z M399.7,106.6c-1.2-4.2-3.2-7.9-7.3-8.5v-0.5
	c1.9,0,5.7,0.7,7.4,1.2l0.4,7.8H399.7z"/>
<path class="st0" d="M423.4,130.3c-11.3-0.3-17.2-7.7-17.2-16.6c0-9.9,8.1-15.6,15.6-16.1v0.5c-0.8,0.1-2.2,0.5-3.1,1.1
	c-3.4,2-5.7,6.1-5.7,14c0,7.4,2.1,13.5,6.9,15.8c1.1,0.5,2.3,0.8,3.5,0.9V130.3z M423.9,97.6c11.2,0.3,17.1,7.7,17.1,16.6
	c0,9.9-8.1,15.5-15.6,16.1v-0.5c0.8-0.1,2.2-0.5,3.1-1.1c3.3-1.9,5.6-6.1,5.6-14c0-7.4-2.1-13.5-6.9-15.8c-1.1-0.5-2.3-0.8-3.4-0.9
	V97.6z"/>
<path class="st0" d="M460.7,123l-2.9,7.3h-0.9l-10.2-25.7c-1.7-4.3-3.4-5.8-6.2-6.1V98h16.1v0.4c-2.5,0.2-3.9,0.9-3.9,2.8
	c0,1.1,0.5,2.4,1.2,4.1L460.7,123z M475.4,98v0.4c-2.1,0.4-3.8,1.2-5.2,2.6c-1.5,1.5-2.6,3.5-3.8,6.3l-0.4-0.2
	c0.3-1,0.9-4.1,0.9-5.4c0-2.3-1.8-3.1-4-3.3V98H475.4z"/>
<path class="st0" d="M465.6,129.9v-0.4c1.8-0.3,3.1-0.9,4.4-2.2c1.6-1.6,2.5-3.3,3.3-5.4l0.4,0.2c-0.1,0.5-0.5,2.2-0.5,3.5
	c0,2.5,1.7,3.7,4.3,3.9v0.4H465.6z M484.6,117.6h-9.7l0.5-1.3h8.7l-4.3-11.7l2.7-6.9h1.1l10,25.9c1.6,4.1,3.6,5.6,6,6v0.4h-15.8
	v-0.4c2.5-0.2,3.7-0.9,3.7-2.8c0-1.1-0.4-2.4-1.1-4.1L484.6,117.6z"/>
<g>
	<path class="st1" d="M132.7,144.9c0,0.4,0,0.9,0,1.5c0,0.6,0,1.1,0,1.6c0,0.6,0,1.1,0,1.5c0,0.5,0,0.9,0,1.2c0,0.3,0,0.7,0,1.3
		c0,0.6,0,1.1,0,1.7c0,0.6,0,1.2,0,1.7c0,0.6,0,1.1,0,1.5l2,0.1c0,0.2,0,0.4,0,0.6c0,0.2,0,0.5,0,0.7c-0.4,0-0.9,0-1.3,0h-1.9
		c-0.2,0-0.4,0-0.7,0c-0.3,0-0.6,0-0.9,0c-0.3,0-0.6,0-0.9,0c-0.3,0-0.5,0-0.6,0c0-0.2,0-0.4,0-0.7c0-0.2,0-0.4,0-0.6l2-0.1
		c0-0.4,0-0.9,0.1-1.5c0-0.6,0-1.2,0-1.8c0-0.6,0-1.2,0-1.7c0-0.5,0-0.9,0-1.2c0-0.3,0-0.7,0-1.3c0-0.5,0-1.1,0-1.7
		c0-0.6,0-1.1,0-1.7c0-0.5,0-1,0-1.2l-2-0.1c0-0.2,0-0.4,0-0.6s0-0.5,0-0.7c0.1,0,0.3,0,0.6,0c0.3,0,0.6,0,0.9,0c0.3,0,0.6,0,0.9,0
		c0.3,0,0.5,0,0.7,0c0.2,0,0.5,0,0.9,0c0.3,0,0.7,0,1,0h1.2c0,0.2,0,0.4,0,0.7s0,0.4,0,0.6L132.7,144.9z"/>
	<path class="st1" d="M168.6,151.3c0,1.2,0,2.4,0,3.6c0,1.2,0,2.4,0,3.6h-1.2l-9.4-11.7c0,0.9,0,1.8,0,2.7c0,0.9,0,1.8,0,2.7v4.6
		l2.9,0.1c0,0.2,0,0.4,0,0.6c0,0.2,0,0.5,0,0.7c-0.5,0-1,0-1.5,0h-2.1c-0.2,0-0.4,0-0.6,0c-0.2,0-0.5,0-0.8,0c-0.2,0-0.5,0-0.7,0
		c-0.2,0-0.4,0-0.5,0c0-0.2,0-0.4,0-0.7c0-0.2,0-0.4,0-0.6l1.6-0.1l0.1-11.8l-2.1-0.2v-1.3c0.6,0,1.2,0,1.8,0c0.6,0,1.2,0,1.8,0
		l9.2,11.3c-0.1-0.9-0.1-1.9-0.1-2.8c0-0.9,0-1.9,0-2.7c0-0.8,0-1.5,0-2.2c0-0.7,0-1.4,0-2.2l-2.8-0.1c0-0.2,0-0.4,0-0.6
		s0-0.5,0-0.7h1.5c0.4,0,0.8,0,1.2,0c0.4,0,0.7,0,0.9,0c0.2,0,0.4,0,0.6,0c0.2,0,0.5,0,0.8,0c0.2,0,0.5,0,0.7,0c0.2,0,0.4,0,0.5,0
		c0,0.2,0,0.4,0,0.7s0,0.4,0,0.6l-1.7,0.1V151.3z"/>
	<path class="st1" d="M199.3,158.2c-0.6,0-1.1,0-1.6,0h-2.3c-0.2,0-0.4,0-0.8,0c-0.4,0-0.7,0-1.1,0c-0.4,0-0.7,0-1.1,0
		c-0.3,0-0.6,0-0.7,0c0-0.2,0-0.4,0-0.7c0-0.2,0-0.4,0-0.6l2.5-0.1c0-0.4,0-0.9,0.1-1.5c0-0.6,0-1.2,0-1.8c0-0.6,0-1.2,0-1.7
		c0-0.5,0-0.9,0-1.2c0-0.3,0-0.7,0-1.2c0-0.5,0-1.1,0-1.6c0-0.6,0-1.1,0-1.7c0-0.5,0-1,0-1.3l-2.7,0c-0.3,0-0.5,0.2-0.5,0.5
		l-0.2,2.2c-0.1,0-0.2,0-0.3,0c-0.1,0-0.3,0-0.4,0c-0.1,0-0.3,0-0.4,0c-0.1,0-0.2,0-0.3,0c0-0.1,0-0.4,0-0.8c0-0.4,0-0.8,0-1.3
		c0-0.5,0-0.9,0-1.3c0-0.4,0-0.7,0-0.9l1.6,0.1h8.5l1.7-0.1c0,0.2,0,0.5,0,0.9c0,0.4,0,0.9,0,1.3c0,0.5,0,0.9,0,1.3
		c0,0.4,0,0.7,0,0.8c-0.1,0-0.2,0-0.3,0c-0.1,0-0.3,0-0.4,0c-0.1,0-0.3,0-0.4,0c-0.1,0-0.2,0-0.3,0l-0.2-2.3c0-0.2-0.1-0.3-0.2-0.4
		c-0.1-0.1-0.3-0.1-0.5-0.1l-2.6,0c0,0.4,0,0.9,0,1.5c0,0.5,0,1.1,0,1.6c0,0.5,0,1,0,1.5c0,0.5,0,0.9,0,1.2c0,0.3,0,0.7,0,1.3
		c0,0.6,0,1.1,0,1.7c0,0.6,0,1.2,0,1.7c0,0.6,0,1.1,0,1.5l2.7,0.1c0,0.2,0,0.4,0,0.6C199.3,157.8,199.3,158,199.3,158.2z"/>
	<path class="st1" d="M230.9,158.2h-3.6c-0.4,0-0.9,0-1.3,0h-1.9c-0.2,0-0.4,0-0.7,0c-0.3,0-0.6,0-0.9,0c-0.3,0-0.6,0-0.9,0
		c-0.3,0-0.5,0-0.6,0c0-0.2,0-0.4,0-0.7c0-0.2,0-0.4,0-0.6l2-0.1c0-0.4,0-0.9,0.1-1.5c0-0.6,0-1.2,0-1.8c0-0.6,0-1.2,0-1.7
		c0-0.5,0-0.9,0-1.2c0-0.3,0-0.7,0-1.3c0-0.5,0-1.1,0-1.7c0-0.6,0-1.1,0-1.7c0-0.5,0-1,0-1.2l-2-0.1c0-0.2,0-0.4,0-0.6s0-0.5,0-0.7
		c0.1,0,0.3,0,0.6,0c0.3,0,0.6,0,0.9,0c0.3,0,0.6,0,0.9,0c0.3,0,0.5,0,0.7,0h6.2l1.8-0.1c0,0.2,0,0.4,0,0.8c0,0.4,0,0.7,0,1.1
		c0,0.4,0,0.7,0,1.1c0,0.3,0,0.6,0,0.7c-0.1,0-0.2,0-0.4,0c-0.1,0-0.3,0-0.4,0c-0.2,0-0.3,0-0.4,0c-0.1,0-0.2,0-0.3,0l-0.2-1.5
		c0-0.2-0.1-0.4-0.2-0.4c-0.1-0.1-0.3-0.1-0.4-0.1l-4.6,0c0,0.4,0,0.8,0,1.2c0,0.4,0,0.9,0,1.3c0,0.4,0,0.9,0,1.3c0,0.4,0,0.8,0,1.2
		c0.3,0,0.6,0,0.8,0c0.3,0,0.5,0,0.8,0c0.3,0,0.5,0,0.8,0c0.3,0,0.6,0,0.8,0l0.2-1.8c0.4,0,0.8,0,1.3,0c0,0.4,0,0.9,0,1.3
		c0,0.5,0,0.9,0,1.4c0,0.5,0,0.9,0,1.4c0,0.5,0,0.9,0,1.3c-0.4,0-0.8,0-1.3,0l-0.2-2.2c-0.3,0-0.6,0-0.8,0c-0.3,0-0.5,0-0.8,0
		c-0.3,0-0.5,0-0.8,0c-0.3,0-0.6,0-0.9,0c0,0.4,0,0.8,0,1.2c0,0.5,0,1,0,1.5c0,0.5,0,1,0,1.5c0,0.5,0,0.9,0,1.3h5
		c0.2,0,0.4,0,0.5-0.1c0.1-0.1,0.1-0.2,0.2-0.4l0.2-2c0.1,0,0.2,0,0.3,0c0.1,0,0.2,0,0.4,0c0.2,0,0.3,0,0.4,0c0.1,0,0.2,0,0.4,0
		c0,0.1,0,0.4,0,0.7c0,0.4,0,0.8,0,1.2c0,0.4,0,0.9,0,1.3c0,0.4,0,0.7,0,0.9L230.9,158.2z"/>
	<path class="st1" d="M259.3,156.9c0,0.2,0,0.4,0,0.6c0,0.2,0,0.5,0,0.7c-0.5,0-1,0-1.4,0h-2c-0.2,0-0.4,0-0.7,0c-0.3,0-0.6,0-0.9,0
		c-0.3,0-0.6,0-0.9,0c-0.3,0-0.5,0-0.6,0c0-0.2,0-0.4,0-0.7c0-0.2,0-0.4,0-0.6l2-0.1c0-0.4,0-0.9,0.1-1.5c0-0.6,0-1.2,0-1.8
		c0-0.6,0-1.2,0-1.7c0-0.5,0-0.9,0-1.2c0-0.3,0-0.7,0-1.3c0-0.5,0-1.1,0-1.7c0-0.6,0-1.1,0-1.7c0-0.5,0-1,0-1.2l-2-0.1
		c0-0.2,0-0.4,0-0.6s0-0.5,0-0.7c0.1,0,0.3,0,0.6,0c0.3,0,0.6,0,0.9,0c0.3,0,0.6,0,0.9,0c0.3,0,0.5,0,0.7,0h2.9
		c0.9,0,1.7,0.1,2.3,0.3c0.6,0.2,1.1,0.5,1.5,0.9c0.4,0.4,0.7,0.8,0.8,1.3c0.2,0.5,0.2,0.9,0.2,1.5c0,0.8-0.2,1.4-0.4,1.9
		c-0.3,0.5-0.6,0.9-1,1.2c-0.4,0.3-0.9,0.6-1.4,0.8c0.3,0.5,0.6,0.9,0.8,1.3c0.2,0.4,0.4,0.7,0.6,0.9c0.2,0.3,0.4,0.5,0.5,0.7
		c0.2,0.2,0.4,0.5,0.6,0.8c0.5,0.6,0.9,1.1,1.5,1.5c0.5,0.4,1.1,0.7,1.8,0.7c0,0.1,0,0.2,0,0.3c0,0.1-0.1,0.3-0.1,0.4
		c0,0.1-0.1,0.2-0.1,0.3c0,0.1-0.1,0.2-0.1,0.2c-0.9,0.1-1.7,0-2.3-0.2c-0.6-0.2-1.1-0.6-1.5-1.1c-0.3-0.3-0.6-0.7-0.8-1
		c-0.3-0.3-0.5-0.7-0.8-1.1c-0.3-0.4-0.6-0.9-0.9-1.4c-0.3-0.5-0.7-1.1-1.2-1.8c-0.3,0-0.6,0-1,0c-0.3,0-0.6,0-1,0
		c0,0.4,0,0.8,0,1.2c0,0.4,0,0.9,0,1.3c0,0.5,0,0.9,0,1.3c0,0.4,0,0.8,0,1.1L259.3,156.9z M257.1,150.6c0.2,0,0.4,0,0.6,0
		c0.2,0,0.4,0,0.6,0c1.2,0,2.1-0.2,2.6-0.8c0.5-0.5,0.8-1.2,0.8-2.2c0-0.9-0.2-1.6-0.7-2.1c-0.5-0.5-1.3-0.7-2.4-0.7h-1.4V150.6z"/>
	<path class="st1" d="M290.6,144.9c0,0.4,0,0.9,0,1.5c0,0.6,0,1.1,0,1.6c0,0.6,0,1.1,0,1.5c0,0.5,0,0.9,0,1.2c0,0.3,0,0.7,0,1.3
		c0,0.6,0,1.1,0,1.7c0,0.6,0,1.2,0,1.7c0,0.6,0,1.1,0,1.5l2,0.1c0,0.2,0,0.4,0,0.6c0,0.2,0,0.5,0,0.7c-0.4,0-0.9,0-1.3,0h-1.9
		c-0.2,0-0.4,0-0.7,0c-0.3,0-0.6,0-0.9,0c-0.3,0-0.6,0-0.9,0c-0.3,0-0.5,0-0.6,0c0-0.2,0-0.4,0-0.7c0-0.2,0-0.4,0-0.6l2-0.1
		c0-0.4,0.1-0.9,0.1-1.5c0-0.6,0-1.2,0-1.8c0-0.6,0-1.2,0-1.7c0-0.5,0-0.9,0-1.2c0-0.3,0-0.7,0-1.3c0-0.5,0-1.1,0-1.7
		c0-0.6,0-1.1,0-1.7c0-0.5,0-1,0-1.2l-2-0.1c0-0.2,0-0.4,0-0.6s0-0.5,0-0.7c0.1,0,0.3,0,0.6,0c0.3,0,0.5,0,0.9,0c0.3,0,0.6,0,0.9,0
		c0.3,0,0.5,0,0.7,0c0.2,0,0.5,0,0.9,0c0.3,0,0.7,0,1,0h1.2c0,0.2,0,0.4,0,0.7s0,0.4,0,0.6L290.6,144.9z"/>
	<path class="st1" d="M320.4,143.2c1,0,1.9,0.2,2.8,0.5c0.9,0.3,1.7,0.8,2.3,1.4c0.7,0.6,1.2,1.4,1.6,2.3c0.4,0.9,0.6,2,0.6,3.1
		c0,1.2-0.2,2.3-0.5,3.3c-0.4,1-0.9,1.8-1.6,2.5c-0.7,0.7-1.5,1.2-2.4,1.6c-0.9,0.4-1.9,0.6-3,0.6c-0.9,0-1.8-0.2-2.7-0.5
		c-0.9-0.3-1.7-0.8-2.3-1.4c-0.7-0.6-1.2-1.4-1.7-2.4c-0.4-0.9-0.6-2-0.6-3.3c0-1.1,0.2-2.1,0.6-3.1c0.4-0.9,0.9-1.7,1.6-2.4
		c0.7-0.7,1.5-1.2,2.4-1.6C318.3,143.4,319.3,143.2,320.4,143.2z M320.5,157c0.7,0,1.4-0.1,2-0.4c0.6-0.2,1.1-0.6,1.6-1.2
		c0.4-0.5,0.8-1.1,1-1.9c0.2-0.8,0.4-1.7,0.4-2.7c0-1-0.1-1.9-0.4-2.7c-0.3-0.8-0.7-1.4-1.1-1.9c-0.5-0.5-1-0.9-1.7-1.2
		c-0.6-0.2-1.3-0.4-2-0.4c-0.6,0-1.2,0.1-1.8,0.3c-0.6,0.2-1.2,0.6-1.6,1c-0.5,0.5-0.8,1.1-1.1,1.8c-0.3,0.8-0.4,1.7-0.4,2.7
		c0,1,0.1,1.9,0.4,2.7c0.3,0.8,0.7,1.5,1.2,2c0.5,0.6,1,0.9,1.7,1.2C319.1,156.9,319.8,157,320.5,157z"/>
	<path class="st1" d="M354.5,156.9c0,0.2,0,0.4,0,0.6c0,0.2,0,0.5,0,0.7c-0.5,0-1,0-1.4,0h-2c-0.2,0-0.4,0-0.7,0c-0.3,0-0.6,0-0.9,0
		c-0.3,0-0.6,0-0.9,0c-0.3,0-0.5,0-0.6,0c0-0.2,0-0.4,0-0.7c0-0.2,0-0.4,0-0.6l2-0.1c0-0.4,0-0.9,0.1-1.5c0-0.6,0-1.2,0-1.8
		c0-0.6,0-1.2,0-1.7c0-0.5,0-0.9,0-1.2c0-0.3,0-0.7,0-1.3c0-0.5,0-1.1,0-1.7c0-0.6,0-1.1,0-1.7c0-0.5,0-1,0-1.2l-2-0.1
		c0-0.2,0-0.4,0-0.6s0-0.5,0-0.7c0.1,0,0.3,0,0.6,0c0.3,0,0.6,0,0.9,0c0.3,0,0.6,0,0.9,0c0.3,0,0.5,0,0.7,0h2.9
		c0.9,0,1.7,0.1,2.3,0.3c0.6,0.2,1.1,0.5,1.5,0.9c0.4,0.4,0.7,0.8,0.8,1.3c0.2,0.5,0.2,0.9,0.2,1.5c0,0.8-0.2,1.4-0.4,1.9
		c-0.3,0.5-0.6,0.9-1,1.2c-0.4,0.3-0.9,0.6-1.4,0.8c0.3,0.5,0.6,0.9,0.8,1.3c0.2,0.4,0.4,0.7,0.6,0.9c0.2,0.3,0.4,0.5,0.5,0.7
		c0.2,0.2,0.4,0.5,0.6,0.8c0.5,0.6,1,1.1,1.5,1.5c0.5,0.4,1.1,0.7,1.8,0.7c0,0.1,0,0.2,0,0.3c0,0.1-0.1,0.3-0.1,0.4
		c0,0.1-0.1,0.2-0.1,0.3c0,0.1-0.1,0.2-0.1,0.2c-1,0.1-1.7,0-2.3-0.2c-0.6-0.2-1.1-0.6-1.5-1.1c-0.3-0.3-0.6-0.7-0.8-1
		c-0.3-0.3-0.5-0.7-0.8-1.1c-0.3-0.4-0.6-0.9-0.9-1.4c-0.3-0.5-0.7-1.1-1.2-1.8c-0.3,0-0.6,0-1,0c-0.3,0-0.6,0-0.9,0
		c0,0.4,0,0.8,0,1.2c0,0.4,0,0.9,0,1.3c0,0.5,0,0.9,0,1.3c0,0.4,0,0.8,0,1.1L354.5,156.9z M352.3,150.6c0.2,0,0.4,0,0.6,0
		c0.2,0,0.4,0,0.6,0c1.2,0,2.1-0.2,2.6-0.8c0.5-0.5,0.8-1.2,0.8-2.2c0-0.9-0.2-1.6-0.7-2.1c-0.5-0.5-1.3-0.7-2.4-0.7h-1.4V150.6z"/>
	<path class="st1" d="M386,157c0.4,0,0.7,0,1-0.1c0.3-0.1,0.6-0.2,0.9-0.3c0.2-0.2,0.4-0.3,0.6-0.6c0.2-0.2,0.2-0.5,0.2-0.9
		c0-0.4,0-0.7-0.1-1c-0.1-0.3-0.2-0.6-0.5-0.8c-0.2-0.3-0.5-0.5-0.9-0.8c-0.4-0.3-0.9-0.6-1.5-0.9c-0.6-0.4-1.2-0.7-1.7-1
		c-0.5-0.3-0.9-0.6-1.2-1c-0.3-0.3-0.6-0.7-0.8-1.1c-0.2-0.4-0.3-0.9-0.3-1.4c0-0.6,0.1-1.1,0.4-1.5c0.2-0.5,0.6-0.9,1-1.2
		c0.4-0.3,0.9-0.6,1.5-0.8c0.6-0.2,1.2-0.3,1.8-0.3c0.4,0,0.7,0,1,0c0.3,0,0.6,0.1,0.8,0.2c0.2,0.1,0.5,0.1,0.8,0.2
		c0.2,0.1,0.5,0.1,0.8,0.1l0.6,0c0,0.2,0,0.5,0,0.8c0,0.4,0,0.8,0,1.2c0,0.4,0,0.8,0,1.2c0,0.4,0,0.6,0,0.7H389l-0.2-1.8
		c0-0.2-0.1-0.4-0.2-0.6c-0.1-0.1-0.3-0.2-0.5-0.3c-0.3-0.1-0.5-0.1-0.8-0.2c-0.3,0-0.6-0.1-0.9-0.1c-0.3,0-0.6,0-0.9,0.1
		c-0.3,0.1-0.6,0.2-0.8,0.3c-0.2,0.1-0.4,0.3-0.5,0.5c-0.1,0.2-0.2,0.5-0.2,0.8c0,0.3,0,0.5,0.1,0.8c0.1,0.2,0.2,0.5,0.4,0.7
		c0.2,0.2,0.5,0.5,0.9,0.8c0.4,0.3,0.9,0.6,1.5,1c0.7,0.4,1.4,0.8,1.9,1.2c0.5,0.4,0.9,0.7,1.3,1c0.3,0.3,0.6,0.7,0.7,1.1
		c0.2,0.4,0.2,0.8,0.2,1.3c0,0.6-0.1,1.2-0.4,1.7c-0.3,0.5-0.7,1-1.2,1.3c-0.5,0.4-1.1,0.6-1.7,0.8c-0.6,0.2-1.3,0.3-2.1,0.3
		c-0.4,0-0.8,0-1-0.1c-0.2,0-0.5-0.1-0.7-0.1c-0.2,0-0.4-0.1-0.7-0.1c-0.2,0-0.6-0.1-1-0.1l-0.4,0c0-0.2,0-0.5,0-0.9
		c0-0.4,0-0.8,0-1.2c0-0.4,0-0.8,0-1.2c0-0.4,0-0.6,0-0.7h1.5l0.2,1.7c0,0.4,0.1,0.6,0.2,0.7c0.1,0.1,0.3,0.2,0.5,0.3
		c0.3,0.1,0.6,0.1,0.9,0.2C385.4,156.9,385.7,157,386,157z"/>
</g>
</svg>
