<?xml version="1.0" encoding="utf-8"?>
<!-- Generator: Adobe Illustrator 19.1.0, SVG Export Plug-In . SVG Version: 6.00 Build 0)  -->
<svg version="1.1" id="Layer_1" xmlns="http://www.w3.org/2000/svg" xmlns:xlink="http://www.w3.org/1999/xlink" x="0px" y="0px"
	 viewBox="0 0 5.7 5.3" style="fill: #433a38;" xml:space="preserve">
<path d="M0,2.9c0-0.1,0.1-0.3,0.2-0.4L2.9,0l2.7,2.5c0.2,0.2,0.2,0.5,0,0.7c-0.2,0.2-0.5,0.2-0.7,0l-2-1.9l-2,1.9
	c-0.2,0.2-0.5,0.2-0.7,0C0,3.1,0,3,0,2.9z"/>
<path d="M0,4.8c0-0.1,0.1-0.3,0.2-0.4l2.7-2.5l2.7,2.5c0.2,0.2,0.2,0.5,0,0.7c-0.2,0.2-0.5,0.2-0.7,0l-2-1.9l-2,1.9
	c-0.2,0.2-0.5,0.2-0.7,0C0,5.1,0,5,0,4.8z"/>
</svg>
