<?xml version="1.0" encoding="utf-8"?>
<!-- Generator: Adobe Illustrator 19.2.1, SVG Export Plug-In . SVG Version: 6.00 Build 0)  -->
<svg version="1.1" id="Layer_1" xmlns:sketch="http://www.bohemiancoding.com/sketch/ns"
	 xmlns="http://www.w3.org/2000/svg" xmlns:xlink="http://www.w3.org/1999/xlink" x="0px" y="0px" viewBox="0 0 14 10"
	 style="enable-background:new 0 0 14 10;" xml:space="preserve">
<style type="text/css">
	.st0{fill:#f3f3eb;}
</style>
<title></title>
<g id="Icons_with_numbers">
	<g id="Group" transform="translate(-336.000000, 0.000000)">
		<path id="Shape" class="st0" d="M344.7,5.5l4.9,4.2c-0.2,0.2-0.4,0.3-0.7,0.3h-12c-0.3,0-0.5-0.1-0.7-0.3l5-4.2L343,7L344.7,5.5z
			 M343,6l-6.7-5.7c0.2-0.2,0.4-0.3,0.7-0.3h12c0.3,0,0.5,0.1,0.7,0.3L343,6z M350,9.2l-4.8-4.1l4.8-4.2V9.2L350,9.2z M336,9.2V0.9
			l4.8,4.2L336,9.2L336,9.2z"/>
	</g>
</g>
</svg>
