<?xml version="1.0" encoding="utf-8"?>
<!-- Generator: Adobe Illustrator 19.1.0, SVG Export Plug-In . SVG Version: 6.00 Build 0)  -->
<svg version="1.1" id="svg2" xmlns="http://www.w3.org/2000/svg" xmlns:xlink="http://www.w3.org/1999/xlink" x="0px" y="0px"
	 viewBox="187.5 405.4 31 31" style="fill: #433a38;" xml:space="preserve">
<g id="layer1" transform="translate(0,-552.36218)">
	<path id="rect2995" d="M190.6,957.8c-1.7,0-3.1,1.4-3.1,3.1v24.8c0,1.7,1.4,3.1,3.1,3.1h10.9v-13.9h-2.7V970h2.7v-3.2
		c0-2.3,1.1-5.8,5.8-5.8l4.3,0v4.8h-3.1c-0.5,0-1.2,0.3-1.2,1.3v2.9h4.4l-0.5,4.9h-3.9v13.9h8.2c1.7,0,3.1-1.4,3.1-3.1v-24.8
		c0-1.7-1.4-3.1-3.1-3.1H190.6z"/>
</g>
</svg>
