<?xml version="1.0" encoding="utf-8"?>
<!-- Generator: Adobe Illustrator 19.1.0, SVG Export Plug-In . SVG Version: 6.00 Build 0)  -->
<svg version="1.1" id="svg2" xmlns="http://www.w3.org/2000/svg" xmlns:xlink="http://www.w3.org/1999/xlink" x="0px" y="0px"
	 viewBox="186.1 404.1 31.5 31.5" style="fill: #433a38;" xml:space="preserve">
<g id="layer1" transform="translate(0,-552.36218)">
	<g id="XMLID_1_">
		<g>
			<path d="M217.3,967.6c0,4.8,0,10.5,0,14.8c0,2.8-2.7,5.3-5.4,5.3c-5,0-17,0-20.4,0c-2.5,0-5.2-2.7-5.2-5.2c0-2.4,0-9.4,0-14.8
				h8.4l0.9-1h-9.3c0-1.7,0-4.1,0-4.8c0-1.4,0.9-2.8,2.1-3.9v7.7h6v-8.9c5.1,0,14.4,0.1,17.5,0c2.6-0.1,5.3,2.6,5.3,5.1
				c0,1,0,3.1,0,4.8H208l0.9,1H217.3z M209.8,972.2c0-4.4-3.6-7.9-8-7.9c-4.4,0-8,3.5-8,7.9c0,4.4,3.6,7.9,8,7.9
				C206.3,980.1,209.8,976.6,209.8,972.2z"/>
			<path d="M201.9,964.3c4.4,0,8,3.5,8,7.9c0,4.4-3.6,7.9-8,7.9c-4.4,0-8-3.5-8-7.9C193.9,967.9,197.5,964.3,201.9,964.3z
				 M208.8,972.2c0-3.8-3.1-7-7-7c-3.8,0-7,3.1-7,7c0,3.8,3.1,7,7,7C205.7,979.2,208.8,976,208.8,972.2z"/>
			<circle cx="201.9" cy="972.1" r="5.2"/>
		</g>
		<g>
		</g>
	</g>
</g>
</svg>
