<?xml version="1.0" encoding="utf-8"?>
<!-- Generator: Adobe Illustrator 19.1.0, SVG Export Plug-In . SVG Version: 6.00 Build 0)  -->
<svg version="1.1" id="Layer_1" xmlns="http://www.w3.org/2000/svg" xmlns:xlink="http://www.w3.org/1999/xlink" x="0px" y="0px"
	 viewBox="-408 286.3 24 24" style="enable-background:new -408 286.3 24 24;" xml:space="preserve">
<style type="text/css">
	.st0{fill:#F5F4EB;}
</style>
<g>
	<path class="st0" d="M-399.2,287.8h-4.6c-0.1,0-0.2,0.1-0.2,0.2v0.1c0,0.1,0.1,0.2,0.2,0.2h4.6c0.1,0,0.2-0.1,0.2-0.2V288
		C-399,287.9-399.1,287.8-399.2,287.8z"/>
	<path class="st0" d="M-386,297.3h-8v1h5v11h-10h-6.8c0.2,0.5,0.8,1,1.8,1h18c2,0,2-2,2-2v-9C-384,299.3-384,297.3-386,297.3z
		 M-387.5,303.8c0-0.6,0.4-1,1-1c0.6,0,1,0.4,1,1s-0.4,1-1,1C-387.1,304.8-387.5,304.3-387.5,303.8z"/>
	<path class="st0" d="M-397,286.3h-9c0,0-2,0-2,2v18c0,2,2,2,2,2h9c0,0,2,0,2-2v-18C-395,286.3-397,286.3-397,286.3z M-401.5,306.8
		c-0.6,0-1-0.4-1-1s0.4-1,1-1c0.6,0,1,0.4,1,1S-400.9,306.8-401.5,306.8z M-396,303.3h-11v-13.5h11V303.3z M-396,288.8h-11v-0.5
		c0-0.5,0.1-0.7,0.4-0.9c0.2-0.1,0.4-0.1,0.6-0.1h9c0.1,0,0.3,0,0.6,0.1c0.3,0.1,0.4,0.4,0.4,0.9V288.8z"/>
</g>
<g>
	<path class="st0" d="M-403.2,301c-1.2-0.6-1.9-1.8-1.9-3.1c0-2,1.6-3.5,3.5-3.5c2,0,3.5,1.6,3.5,3.5c0,0.7-0.2,1.3-0.6,1.9
		l-0.6-0.4c0.3-0.5,0.4-1,0.4-1.5c0-1.5-1.3-2.8-2.8-2.8c-1.5,0-2.8,1.3-2.8,2.8c0,1,0.6,2,1.5,2.5L-403.2,301z"/>
	<g>
		<polygon class="st0" points="-402.7,299.4 -401.3,301.6 -403.9,301.7 		"/>
	</g>
</g>
</svg>
