<?xml version="1.0" encoding="utf-8"?>
<!-- Generator: Adobe Illustrator 19.2.1, SVG Export Plug-In . SVG Version: 6.00 Build 0)  -->
<svg version="1.1" id="svg1931" xmlns="http://www.w3.org/2000/svg" xmlns:xlink="http://www.w3.org/1999/xlink" x="0px" y="0px"
	 viewBox="0 0 21.6 32.6" style="enable-background:new 0 0 21.6 32.6;" xml:space="preserve">
<style type="text/css">
	.st0{fill:#f3f3eb;}
</style>
<g id="g1941">
	<path id="path1943" class="st0" d="M14.5,10.5c1.3,0.6,0.8,2.3,0.2,3.9c-0.8,2.3-2,4.5-3.1,6.2c-1.6,2.6-2.5,3.8-3.7,3.2l-4.3,8.6
		c1.5,0.8,8.4,0.8,14.7-12.3c6.1-12.4,2-17.4,0.6-18.3L14.5,10.5z"/>
	<path id="path1945" class="st0" d="M0.6,30.8c0,0,2.4,1.2,2.5,1.1l4.3-8.6l-2.4-1.2c-0.5-0.3-1.2,0-1.5,0.5l-3.3,6.7l0,0
		C-0.2,29.9,0.1,30.6,0.6,30.8L0.6,30.8z"/>
	<path id="path1947" class="st0" d="M11.5,9c0,0,2.4,1.2,2.4,1.2l4.4-8.9l-2.4-1.2c-0.5-0.3-1.2,0-1.5,0.5L11,7.5l0,0
		C10.7,8,10.9,8.7,11.5,9L11.5,9z"/>
</g>
</svg>
